<?xml version="1.0" ?><svg viewBox="0 0 64 64" xmlns="http://www.w3.org/2000/svg"><defs><style>.cls-1{fill:#bcc2d7;}.cls-2{fill:#194568;}.cls-3{fill:#f24463;}.cls-4{fill:#d51d48;}.cls-5{fill:#546c8c;}.cls-6{fill:#fff;}</style></defs><g id="main"><path class="cls-1" d="M55,7V41a1,1,0,0,1-1,1H42a1,1,0,0,1-1-1V19A13,13,0,0,1,54,6,1,1,0,0,1,55,7Z"/><path class="cls-2" d="M10,42a1,1,0,0,1-1-1V34a1,1,0,0,1,.29-.71l3.89-3.89L3.66,25.94a1,1,0,0,1-.25-1.75l9.78-7.11-3.7-2.22A1,1,0,0,1,9,14V7a1,1,0,0,1,2,0v6.43l4.51,2.71a1,1,0,0,1,.08,1.67L6.11,24.7l9.23,3.36a1,1,0,0,1,.37,1.65L11,34.41V41A1,1,0,0,1,10,42Z"/><path class="cls-3" d="M54,40H10a9,9,0,0,0,0,18H54a9,9,0,0,0,0-18Z"/><path class="cls-4" d="M10,54a5,5,0,0,1-5-5,1,1,0,0,1,2,0,3,3,0,0,0,3,3,1,1,0,0,1,0,2Z"/><path class="cls-5" d="M47,21a1,1,0,0,1-1,1H41V20h5A1,1,0,0,1,47,21Z"/><path class="cls-5" d="M47,26a1,1,0,0,1-1,1H41V25h5A1,1,0,0,1,47,26Z"/><path class="cls-5" d="M47,31a1,1,0,0,1-1,1H41V30h5A1,1,0,0,1,47,31Z"/><circle class="cls-6" cx="48" cy="49" r="4"/></g></svg>